<svg width="38" height="39" viewBox="0 0 38 39" fill="none" xmlns="http://www.w3.org/2000/svg">
<path d="M13.3431 6.05627C16.4673 2.93207 21.5327 2.93207 24.6569 6.05627L32.3431 13.7426C35.4673 16.8668 35.4673 21.9321 32.3431 25.0563L24.6569 32.7426C21.5327 35.8668 16.4673 35.8668 13.3431 32.7426L5.65685 25.0563C2.53266 21.9321 2.53266 16.8668 5.65685 13.7426L13.3431 6.05627Z" fill="#ED1C24"/>
<path fill-rule="evenodd" clip-rule="evenodd" d="M12.4231 18.6105C13.9363 18.9215 15.8826 19.5234 17.3558 20.4699C19.0861 18.1822 22.1942 16.0422 25.5769 14.2839C22.3647 17.4072 19.7065 20.9512 17.9039 24.5147C16.4509 22.478 14.8637 20.5824 12.4231 18.6105Z" fill="white"/>
</svg>
